<?xml version="1.0" standalone="no"?><!DOCTYPE svg PUBLIC "-//W3C//DTD SVG 1.1//EN" "http://www.w3.org/Graphics/SVG/1.1/DTD/svg11.dtd"><svg t="1499595329223" class="icon" style="" viewBox="0 0 1024 1024" version="1.1" xmlns="http://www.w3.org/2000/svg" p-id="2652" xmlns:xlink="http://www.w3.org/1999/xlink" width="200" height="200"><defs><style type="text/css"></style></defs><path d="M557.6 374.6l2.8-2.8c28-53.2 28-111.9 0-165.1-28-50.4-84-81.2-142.7-81.2-28 0-56 8.4-81.2 22.4-42 22.4-70 58.8-81.2 103.6-11.2 42-2.8 84 19.6 120.3l2.8 5.6h-70v-2.8c-22.4-58.8-22.4-117.5 0-170.7 36.5-84 117.6-139.9 210-139.9 28 0 58.8 5.6 86.8 16.8 56 22.4 100.8 64.4 123.1 120.3 25.2 56 25.2 117.5 0 173.5v2.8h-70v-2.8z" p-id="2653" fill="#512660"></path><path d="M781.5 562.1c-5.6-28-30.8-50.4-56-50.4-16.8 0-30.8 8.4-39.2 19.6v-5.6c0-33.6-25.2-58.8-53.2-58.8-28 0-53.2 28-53.2 58.8V495c0-33.6-25.2-58.8-53.2-58.8-28 0-53.2 28-53.2 58.8V301.9c0-33.6-25.2-58.8-53.2-58.8s-50.4 28-50.4 58.8v341.4c0 16.8-11.2 30.8-28 30.8h-8.4l-75.6-33.6c-8.4-5.6-16.8-2.8-25.2-5.6-28-8.4-53.2 28-53.2 58.8 0 19.6 22.4 44.8 33.6 56l204.3 209.9h313.5c8.4-39.2 39.2-187.5 50.4-279.9 3-44.8 5.8-86.8 0.2-117.6z" p-id="2654" fill="#512660"></path></svg>